<?xml version="1.0" encoding="utf-8"?>
<!-- Generator: Adobe Illustrator 19.1.0, SVG Export Plug-In . SVG Version: 6.00 Build 0)  -->
<svg version="1.1" id="Layer_1" xmlns="http://www.w3.org/2000/svg" xmlns:xlink="http://www.w3.org/1999/xlink" x="0px" y="0px"
	 viewBox="0 0 20 20" style="enable-background:new 0 0 20 20;" xml:space="preserve">
<style type="text/css">
	.st0{fill:#BFBFBF;}
</style>
<g>
	<path class="st0" d="M3.3,16.7H19v2.3H1v-18h2.3V16.7z M5.4,15.4c-0.2-0.1-0.4-0.2-0.5-0.4s-0.3-0.3-0.4-0.5s-0.1-0.4-0.1-0.7
		s0-0.5,0.1-0.7s0.2-0.4,0.4-0.5s0.3-0.3,0.5-0.4s0.4-0.1,0.7-0.1c0,0,0,0,0,0s0,0,0,0c0,0,0,0,0,0s0,0,0,0l1.8-3C8,9.1,7.9,9,7.9,9
		S7.8,8.8,7.8,8.8c0-0.1,0-0.2-0.1-0.2s0-0.2,0-0.3c0-0.2,0-0.5,0.1-0.7s0.2-0.4,0.4-0.5s0.3-0.3,0.5-0.4s0.4-0.1,0.7-0.1
		s0.5,0,0.7,0.1s0.4,0.2,0.5,0.4s0.3,0.3,0.4,0.5s0.1,0.4,0.1,0.7c0,0.1,0,0.2,0,0.3s0,0.2-0.1,0.2C11,8.8,11,8.9,11,9
		s-0.1,0.1-0.1,0.2l1.8,3c0,0,0,0,0,0s0,0,0,0c0,0,0,0,0,0s0,0,0,0c0,0,0,0,0.1,0s0,0,0.1,0l3-5.2c0-0.1-0.1-0.1-0.1-0.2
		c0-0.1-0.1-0.2-0.1-0.2c0-0.1,0-0.2-0.1-0.3s0-0.2,0-0.3c0-0.2,0-0.5,0.1-0.7S16,5,16.1,4.8s0.3-0.3,0.5-0.4s0.4-0.1,0.7-0.1
		s0.5,0,0.7,0.1s0.4,0.2,0.5,0.4s0.3,0.3,0.4,0.5S19,5.8,19,6s0,0.5-0.1,0.7s-0.2,0.4-0.4,0.5S18.2,7.5,18,7.6s-0.4,0.1-0.7,0.1
		c0,0,0,0-0.1,0c0,0,0,0-0.1,0l-3,5.2c0,0.1,0.1,0.1,0.1,0.2s0.1,0.2,0.1,0.2c0,0.1,0,0.2,0.1,0.3c0,0.1,0,0.2,0,0.3
		c0,0.2,0,0.5-0.1,0.7s-0.2,0.4-0.4,0.5s-0.3,0.3-0.5,0.4s-0.4,0.1-0.7,0.1s-0.5,0-0.7-0.1s-0.4-0.2-0.5-0.4s-0.3-0.3-0.4-0.5
		s-0.1-0.4-0.1-0.7c0-0.1,0-0.2,0-0.3s0-0.2,0.1-0.2c0-0.1,0.1-0.2,0.1-0.2s0.1-0.1,0.1-0.2l-1.8-3c0,0,0,0,0,0s0,0,0,0c0,0,0,0,0,0
		s0,0,0,0s0,0,0,0s0,0,0,0c0,0,0,0,0,0s0,0,0,0l-1.8,3c0,0.1,0.1,0.1,0.1,0.2s0.1,0.1,0.1,0.2c0,0.1,0,0.2,0.1,0.2s0,0.2,0,0.3
		c0,0.2,0,0.5-0.1,0.7s-0.2,0.4-0.4,0.5s-0.3,0.3-0.5,0.4s-0.4,0.1-0.7,0.1S5.6,15.5,5.4,15.4z"/>
</g>
</svg>
