<?xml version="1.0" encoding="utf-8"?>
<!-- Generator: Adobe Illustrator 19.1.0, SVG Export Plug-In . SVG Version: 6.00 Build 0)  -->
<svg version="1.1" id="Layer_1" xmlns="http://www.w3.org/2000/svg" xmlns:xlink="http://www.w3.org/1999/xlink" x="0px" y="0px"
	 viewBox="0 0 20 20" style="enable-background:new 0 0 20 20;" xml:space="preserve">
<style type="text/css">
	.st0{fill:#BFBFBF;}
</style>
<g>
	<path class="st0" d="M7.6,11.3l0.9,0.9c0.2,0.3,0.2,0.5,0,0.8L3,19.2c-0.2,0.3-0.5,0.3-0.7,0l-1.6-1.7c-0.3-0.3-0.3-0.5,0-0.7
		l6.1-5.5C7.1,11.1,7.3,11.1,7.6,11.3z M4.3,7.9c-1,0-1.8-0.4-2.6-1.1c-0.5-0.5-0.9-1.2-1-2C0.5,4.2,0.6,3.4,1,2.7
		C1,2.7,1.1,2.6,1.2,2.6c0.1,0,0.1,0,0.2,0.1l2.3,2.3C3.8,5.1,4,5.2,4.3,5.2c0.2,0,0.4-0.1,0.6-0.3c0.2-0.2,0.3-0.4,0.3-0.6
		c0-0.2-0.1-0.5-0.3-0.6L2.6,1.4C2.6,1.4,2.5,1.3,2.6,1.2c0-0.1,0.1-0.1,0.1-0.2c0.5-0.2,1-0.4,1.6-0.4c1,0,1.9,0.4,2.6,1.1
		c0.5,0.5,0.8,1.1,1,1.7s0.1,1.3-0.1,2l2.1,2.1L7.5,9.9L5.4,7.8C5,7.9,4.6,7.9,4.3,7.9z M14.8,6.8l-0.2-0.2L9,12.1
		C9,12,8.9,11.9,8.9,11.9l-0.9-0.9c-0.1-0.1-0.1-0.1-0.2-0.2l5.5-5.5l-0.1-0.1c0,0,0-0.1-0.1-0.1c0-0.1,0-0.1-0.1-0.3s0-0.2,0.1-0.3
		c0.1-0.2,0.2-0.3,0.2-0.6c0-0.2,0-0.5-0.1-0.7C13,3,12.8,2.7,12.6,2.5C12.3,2.2,12,2,11.5,1.8c-0.5-0.2-1-0.4-1.6-0.5
		C9.5,1.2,9.4,1.1,9.8,0.9c1.9-0.7,4.2,0.3,6.8,2.9c0.1,0.1,0.2,0.3,0.4,0.5c0.1,0.2,0.3,0.5,0.5,0.9c0.2,0.4,0.3,0.7,0.3,0.9
		c0,0.1,0.1,0.4,0.5,0.9l0.2-0.2c0.3-0.3,0.6-0.3,0.9,0c0.3,0.3,0.3,0.6,0,0.9l-1.4,1.4c-0.3,0.3-0.6,0.3-0.9,0
		c-0.3-0.3-0.3-0.6,0-0.9l0.2-0.2v0c0,0-0.2-0.1-0.5-0.4c-0.3-0.2-0.6-0.4-0.8-0.6C15.8,7,15.6,6.9,15.5,7C15.4,7,15.3,7,15.2,7
		c-0.1,0-0.2-0.1-0.3-0.2L14.8,6.8z M15.7,12.2c1,0,1.8,0.4,2.6,1.1c0.5,0.5,0.9,1.2,1,2c0.1,0.8,0,1.5-0.3,2.2
		c-0.1,0.1-0.1,0.1-0.2,0.1c-0.1,0-0.1,0-0.2-0.1l-2.3-2.3c-0.2-0.2-0.4-0.3-0.6-0.3c-0.2,0-0.4,0.1-0.6,0.3
		c-0.2,0.2-0.3,0.4-0.3,0.6c0,0.2,0.1,0.5,0.3,0.6l2.3,2.3c0.1,0.1,0.1,0.1,0.1,0.2c0,0.1-0.1,0.1-0.1,0.2c-0.5,0.2-1,0.4-1.6,0.4
		c-1,0-1.9-0.4-2.6-1.1c-0.5-0.5-0.8-1.1-1-1.7s-0.1-1.3,0.1-2l-2.4-2.4l2.3-2.3l2.4,2.4C15,12.2,15.4,12.2,15.7,12.2z"/>
</g>
</svg>
