<?xml version="1.0" encoding="utf-8"?>
<!-- Generator: Adobe Illustrator 19.1.0, SVG Export Plug-In . SVG Version: 6.00 Build 0)  -->
<svg version="1.1" id="Layer_1" xmlns="http://www.w3.org/2000/svg" xmlns:xlink="http://www.w3.org/1999/xlink" x="0px" y="0px"
	 viewBox="0 0 20 20" style="enable-background:new 0 0 20 20;" xml:space="preserve">
<g>
	<path d="M0.4,8.8v2.5h10.3l-0.5-2.5H0.4z M0.4,8.8"/>
	<path d="M0.4,15.4v2.5h16.5v-2.3c-0.2,0-0.3-0.1-0.5-0.2H0.4z M0.4,15.4"/>
	<path d="M10.1,2.6l3.4,2h3.3V2.1H0.4v2.5h8.8L8.9,3.5L10.1,2.6z M10.1,2.6"/>
	<path d="M10.2,3.8L10,3.9l2.4,10.6l1.9-3.2l2,2.8c0.4,0.5,1.1,0.7,1.5,0.3c0.5-0.3,0.5-1,0.1-1.6l-2-2.8l3.7-0.8L10.2,3.8z
		 M10.2,3.8"/>
</g>
</svg>
