<?xml version="1.0" encoding="utf-8"?>
<!-- Generator: Adobe Illustrator 19.1.0, SVG Export Plug-In . SVG Version: 6.00 Build 0)  -->
<svg version="1.1" id="Layer_1" xmlns="http://www.w3.org/2000/svg" xmlns:xlink="http://www.w3.org/1999/xlink" x="0px" y="0px"
	 viewBox="0 0 50 50" style="enable-background:new 0 0 50 50;" xml:space="preserve">
<style type="text/css">
	.st0{enable-background:new    ;}
	.st1{fill:#212121;stroke:none;}
</style>
<g class="st0">
	<path class="st1" d="M43.8,9.8V13c0,3.4-8.4,6.3-18.8,6.3c-10.4,0-18.8-2.8-18.8-6.3V9.8c0-3.4,8.4-6.3,18.8-6.3
		C35.4,3.6,43.8,6.4,43.8,9.8z M43.8,18.2v4.2c0,3.4-8.4,6.3-18.8,6.3c-10.4,0-18.8-2.8-18.8-6.3v-4.2c4,2.8,11.4,4.2,18.8,4.2
		C32.4,22.4,39.7,21,43.8,18.2z M43.8,27.6v4.2c0,3.4-8.4,6.3-18.8,6.3c-10.4,0-18.8-2.8-18.8-6.3v-4.2c4,2.8,11.4,4.2,18.8,4.2
		C32.4,31.7,39.7,30.4,43.8,27.6z M43.8,37v4.2c0,3.4-8.4,6.3-18.8,6.3c-10.4,0-18.8-2.8-18.8-6.3V37c4,2.8,11.4,4.2,18.8,4.2
		C32.4,41.1,39.7,39.8,43.8,37z"/>
</g>
</svg>
