<?xml version="1.0" encoding="utf-8"?>
<!-- Generator: Adobe Illustrator 19.1.0, SVG Export Plug-In . SVG Version: 6.00 Build 0)  -->
<svg version="1.1" id="Layer_1" xmlns="http://www.w3.org/2000/svg" xmlns:xlink="http://www.w3.org/1999/xlink" x="0px" y="0px"
	 viewBox="0 0 50 50" style="enable-background:new 0 0 50 50;" xml:space="preserve">
<style type="text/css">
	.st0{enable-background:new    ;}
	.st1{fill:none;stroke:#0CAEBB;}
</style>
<g class="st0">
	<path class="st1" d="M46.4,33.3c0,2-1.6,3.6-3.6,3.6H30.7c0,1.9,1.4,3.5,1.4,4.3s-0.6,1.4-1.4,1.4H19.3c-0.8,0-1.4-0.6-1.4-1.4
		c0-0.8,1.4-2.3,1.4-4.3H7.1c-2,0-3.6-1.6-3.6-3.6V9c0-2,1.6-3.6,3.6-3.6h35.7c2,0,3.6,1.6,3.6,3.6V33.3z M43.6,9
		c0-0.4-0.3-0.7-0.7-0.7H7.1C6.8,8.3,6.4,8.6,6.4,9v18.6c0,0.4,0.3,0.7,0.7,0.7h35.7c0.4,0,0.7-0.3,0.7-0.7V9z"/>
</g>
</svg>
