
<svg xmlns="http://www.w3.org/2000/svg" width="24" height="24" viewBox="0 0 24 24">
<style type="text/css">
	.st0{fill:#00A0AC;}
</style>
 <path fill-rule="evenodd" clip-rule="evenodd" fill="none" d="M0 0h24v24H0z"/>
<path class="st0" d="M9,13.6l1.2,1.2c0.3,0.3,0.3,0.6,0,1l-6.8,7.6c-0.3,0.3-0.6,0.3-0.9,0l-2-2.1C0,21,0,20.7,0.4,20.5L8,13.6
	C8.3,13.3,8.7,13.3,9,13.6z"/>
<path class="st0" d="M4.8,9.4C3.6,9.4,2.5,9,1.6,8.1C1,7.4,0.5,6.6,0.4,5.7C0.2,4.7,0.3,3.8,0.8,3C0.8,2.9,0.9,2.8,1,2.8
	c0.1,0,0.2,0,0.2,0.1l2.8,2.8C4.3,5.9,4.6,6,4.9,6s0.6-0.1,0.8-0.3C5.8,5.5,6,5.2,6,4.9c0-0.3-0.1-0.6-0.3-0.8L2.8,1.3
	C2.7,1.2,2.7,1.2,2.7,1.1c0-0.1,0.1-0.2,0.2-0.2c0.6-0.3,1.3-0.4,1.9-0.4c1.3,0,2.3,0.4,3.2,1.3c0.6,0.6,1,1.3,1.2,2.2
	c0.2,0.8,0.2,1.6-0.1,2.5L11.9,9l-2.9,2.9L6.3,9.2C5.8,9.4,5.3,9.4,4.8,9.4z"/>
<path class="st0" d="M17.9,8l-0.2-0.2l-6.9,6.9c-0.1-0.1-0.1-0.2-0.2-0.2l-1.2-1.2c-0.1-0.1-0.1-0.1-0.2-0.2L16,6.1L15.9,6
	c0,0-0.1-0.1-0.1-0.1c0-0.1,0-0.2-0.1-0.3c0-0.1,0-0.3,0.1-0.4C15.9,5,16,4.7,16,4.4c0-0.3,0-0.6-0.1-0.9c-0.1-0.3-0.3-0.6-0.7-0.9
	S14.5,2,13.9,1.7c-0.6-0.3-1.2-0.5-2-0.6c-0.6-0.1-0.6-0.2-0.1-0.4c2.4-0.8,5.2,0.4,8.4,3.7c0.1,0.2,0.3,0.4,0.5,0.6
	c0.2,0.2,0.4,0.6,0.7,1.1c0.3,0.5,0.4,0.9,0.3,1.1c0,0.1,0.2,0.5,0.6,1.1L22.6,8c0.4-0.4,0.7-0.4,1.1,0c0.4,0.4,0.4,0.7,0,1.1
	l-1.8,1.8c-0.4,0.4-0.7,0.4-1.1,0s-0.4-0.7,0-1.1L21,9.6v0c0,0-0.2-0.2-0.6-0.5c-0.4-0.3-0.7-0.5-0.9-0.7S19,8.2,18.9,8.2
	c-0.2,0.1-0.3,0.1-0.4,0c-0.1,0-0.2-0.1-0.3-0.2L17.9,8z"/>
<path class="st0" d="M19.2,14.7c1.2,0,2.3,0.4,3.2,1.3c0.7,0.7,1.1,1.5,1.3,2.4c0.2,0.9,0,1.9-0.4,2.7c-0.1,0.1-0.1,0.2-0.2,0.2
	c-0.1,0-0.2,0-0.2-0.1l-2.8-2.8c-0.2-0.2-0.5-0.3-0.8-0.3s-0.6,0.1-0.8,0.3c-0.2,0.2-0.3,0.4-0.3,0.8c0,0.3,0.1,0.6,0.3,0.8l2.8,2.8
	c0.1,0.1,0.1,0.1,0.1,0.2c0,0.1-0.1,0.2-0.2,0.2c-0.6,0.3-1.3,0.4-1.9,0.4c-1.3,0-2.3-0.4-3.2-1.3c-0.6-0.6-1-1.3-1.2-2.2
	c-0.2-0.8-0.2-1.6,0.1-2.5l-3-3l2.9-2.9l3,3C18.2,14.8,18.7,14.7,19.2,14.7z"/>
</svg>
