<?xml version="1.0" encoding="utf-8"?>
<!-- Generator: Adobe Illustrator 19.1.0, SVG Export Plug-In . SVG Version: 6.00 Build 0)  -->
<svg version="1.1" id="Layer_1" xmlns="http://www.w3.org/2000/svg" xmlns:xlink="http://www.w3.org/1999/xlink" x="0px" y="0px"
	 viewBox="0 0 20 20" style="enable-background:new 0 0 20 20;" xml:space="preserve" width="20px" height="20px">
<g>
	<path class="particpant_icon" style="color:#990;" d="M3.7,11.5H2.3c-1,0-1.9-0.5-1.9-1.6c0-0.8,0-3.5,1.2-3.5c0.2,0,1.3,0.9,2.6,0.9c0.5,0,0.9-0.1,1.3-0.2
		c0,0.2-0.1,0.4-0.1,0.7c0,0.9,0.3,1.8,0.8,2.6C5.3,10.2,4.3,10.7,3.7,11.5z M4.2,6.3c-1.4,0-2.6-1.2-2.6-2.6s1.2-2.6,2.6-2.6
		s2.6,1.2,2.6,2.6S5.6,6.3,4.2,6.3z M14.4,19.2H5.6c-1.6,0-2.7-1-2.7-2.6c0-2.3,0.5-5.8,3.5-5.8c0.3,0,1.6,1.4,3.6,1.4
		s3.3-1.4,3.6-1.4c2.9,0,3.5,3.5,3.5,5.8C17.1,18.2,16,19.2,14.4,19.2z M10,11.5c-2.1,0-3.9-1.7-3.9-3.9S7.9,3.8,10,3.8
		c2.1,0,3.9,1.7,3.9,3.9S12.1,11.5,10,11.5z M15.8,6.3c-1.4,0-2.6-1.2-2.6-2.6s1.2-2.6,2.6-2.6s2.6,1.2,2.6,2.6S17.2,6.3,15.8,6.3z
		 M17.7,11.5h-1.3c-0.7-0.8-1.6-1.3-2.7-1.3c0.5-0.8,0.8-1.7,0.8-2.6c0-0.2,0-0.4,0-0.7c0.4,0.2,0.9,0.2,1.3,0.2
		c1.4,0,2.4-0.9,2.6-0.9c1.3,0,1.2,2.7,1.2,3.5C19.6,11,18.7,11.5,17.7,11.5z"/>
</g>
</svg>
