<?xml version="1.0" encoding="utf-8"?>
<!-- Generator: Adobe Illustrator 19.1.0, SVG Export Plug-In . SVG Version: 6.00 Build 0)  -->
<svg version="1.1" id="Layer_1" xmlns="http://www.w3.org/2000/svg" xmlns:xlink="http://www.w3.org/1999/xlink" x="0px" y="0px"
	 viewBox="0 0 20 20" style="enable-background:new 0 0 20 20;" xml:space="preserve">
<style type="text/css">
	.st0{fill:none; }
</style>
<rect x="0.6" y="1.5" class="st0" width="18.8" height="16.5"/>
<path d="M17.9,1.5H2.2C1.3,1.5,0.7,2.2,0.7,3v10.2c0,0.9,0.7,1.5,1.5,1.5h5.1l-1,2.1c-0.1,0.2-0.1,0.5,0.1,0.7
	c0.1,0.2,0.4,0.3,0.6,0.3h6.2c0.4,0,0.7-0.3,0.7-0.7c0-0.1,0-0.2-0.1-0.3l-1-2.1h5.1c0.9,0,1.5-0.7,1.5-1.5v-10
	C19.5,2.3,18.8,1.5,17.9,1.5z M18,13.4c0,0.1-0.1,0.2-0.2,0.2H2.2c-0.1,0-0.2-0.1-0.2-0.2V3.2C2,3.1,2.1,3,2.2,3h15.7
	c0,0,0.1,0.1,0.1,0.2V13.4z"/>
<path d="M15.9,4c-0.8-0.1-1.5,0.5-1.5,1.2c0,0.3,0,0.5,0.1,0.7l-3,2.2c-0.2-0.3-0.6-0.5-1-0.5c-0.5-0.2-1,0.1-1.2,0.5L5.6,6.8
	C5.7,6,5.1,5.4,4.4,5.3C3.6,5.2,2.9,5.7,2.8,6.5C2.7,7.3,3.3,7.9,4.1,8C4.6,8.1,5,7.9,5.2,7.6L9,9.1c0,0.7,0.6,1.2,1.2,1.3
	c0.8,0.1,1.5-0.5,1.5-1.2c0-0.1,0-0.1,0-0.2L15,6.6c0.2,0.1,0.4,0.2,0.6,0.2c0.8,0.1,1.5-0.5,1.5-1.2C17.3,4.8,16.7,4,15.9,4z
	 M4.2,7.2C3.9,7.1,3.7,6.9,3.7,6.6c0-0.3,0.3-0.5,0.6-0.5s0.5,0.3,0.5,0.6S4.5,7.2,4.2,7.2z M10.5,9.5c-0.3,0-0.5-0.3-0.5-0.6
	c0-0.3,0.3-0.5,0.6-0.5c0.3,0,0.5,0.3,0.5,0.6S10.8,9.5,10.5,9.5z M15.8,5.8c-0.3,0-0.5-0.3-0.5-0.6s0.3-0.5,0.6-0.5
	c0.3,0,0.5,0.3,0.5,0.6S16.1,5.8,15.8,5.8z"/>
<path d="M15.8,7.6c-0.1,0-0.1,0-0.2,0c-0.2-0.1-0.4-0.1-0.5-0.1l-2.9,2.1c-0.1,1-1,1.6-1.9,1.6c-0.1,0-0.1,0-0.2,0
	c-0.8-0.1-1.4-0.7-1.6-1.4L5.2,8.5c-0.3,0.2-0.6,0.3-1,0.3l0,0c-0.1,0-0.1,0-0.2,0C3.5,8.7,3,8.5,2.7,8.1v4.6h14.5V6.9
	C16.9,7.3,16.4,7.6,15.8,7.6L15.8,7.6z"/>
</svg>
