<?xml version="1.0" encoding="utf-8"?>
<!-- Generator: Adobe Illustrator 19.1.0, SVG Export Plug-In . SVG Version: 6.00 Build 0)  -->
<svg version="1.1" id="Layer_1" xmlns="http://www.w3.org/2000/svg" xmlns:xlink="http://www.w3.org/1999/xlink" x="0px" y="0px"
	 viewBox="-247 338 117 117" style="enable-background:new -247 338 117 117;" xml:space="preserve">
<style type="text/css">
	.st0{fill:none;stroke:#000000;stroke-width:6;stroke-miterlimit:10;}
</style>
<path class="st0" d="M-136,438.3l-22.3-22.4c5.4-7.8,8.1-16.4,8.1-26c0-6.2-1.2-12.2-3.6-17.8c-2.4-5.7-5.7-10.6-9.8-14.7
	s-9-7.4-14.7-9.8s-11.6-3.6-17.8-3.6c-6.2,0-12.2,1.2-17.8,3.6c-5.7,2.4-10.6,5.7-14.7,9.8c-4.1,4.1-7.4,9-9.8,14.7
	c-2.4,5.6-3.6,11.6-3.6,17.8c0,6.2,1.2,12.1,3.6,17.8c2.4,5.7,5.7,10.6,9.8,14.7c4.1,4.1,9,7.4,14.7,9.8c5.7,2.4,11.6,3.6,17.8,3.6
	c9.6,0,18.2-2.7,26-8.1l22.3,22.3c1.6,1.6,3.5,2.5,5.9,2.5c2.3,0,4.3-0.8,5.9-2.4s2.4-3.6,2.4-5.9
	C-133.5,441.8-134.3,439.9-136,438.3L-136,438.3z M-175.5,410.5c-5.7,5.7-12.6,8.6-20.6,8.6s-14.9-2.9-20.6-8.6s-8.6-12.6-8.6-20.6
	s2.9-14.9,8.6-20.6c5.7-5.7,12.6-8.6,20.6-8.6s14.9,2.9,20.6,8.6c5.7,5.7,8.6,12.6,8.6,20.6S-169.8,404.8-175.5,410.5L-175.5,410.5z
	"/>
</svg>
