<?xml version="1.0" encoding="utf-8"?>
<!-- Generator: Adobe Illustrator 19.1.0, SVG Export Plug-In . SVG Version: 6.00 Build 0)  -->
<svg version="1.1" id="Layer_1" xmlns="http://www.w3.org/2000/svg" xmlns:xlink="http://www.w3.org/1999/xlink" x="0px" y="0px"
	 viewBox="0 0 50 50" style="enable-background:new 0 0 50 50;" xml:space="preserve">
<style type="text/css">
	.st0{enable-background:new    ;}
	.st1{fill:#212121;stroke:none;}
</style>
<g class="st0">
	<path class="st1" d="M48.1,38.9c0,2.4-2,4.4-4.4,4.4H6.4c-2.4,0-4.4-2-4.4-4.4V8.7c0-2.4,2-4.4,4.4-4.4h37.3c2.4,0,4.4,2,4.4,4.4
		V38.9z M16.1,12.2c0-0.5-0.4-0.9-0.9-0.9H6.4c-0.5,0-0.9,0.4-0.9,0.9v5.3c0,0.5,0.4,0.9,0.9,0.9h8.9c0.5,0,0.9-0.4,0.9-0.9V12.2z
		 M16.1,22.9c0-0.5-0.4-0.9-0.9-0.9H6.4c-0.5,0-0.9,0.4-0.9,0.9v5.3c0,0.5,0.4,0.9,0.9,0.9h8.9c0.5,0,0.9-0.4,0.9-0.9V22.9z
		 M16.1,33.5c0-0.5-0.4-0.9-0.9-0.9H6.4c-0.5,0-0.9,0.4-0.9,0.9v5.3c0,0.5,0.4,0.9,0.9,0.9h8.9c0.5,0,0.9-0.4,0.9-0.9V33.5z
		 M30.3,12.2c0-0.5-0.4-0.9-0.9-0.9h-8.9c-0.5,0-0.9,0.4-0.9,0.9v5.3c0,0.5,0.4,0.9,0.9,0.9h8.9c0.5,0,0.9-0.4,0.9-0.9V12.2z
		 M30.3,22.9c0-0.5-0.4-0.9-0.9-0.9h-8.9c-0.5,0-0.9,0.4-0.9,0.9v5.3c0,0.5,0.4,0.9,0.9,0.9h8.9c0.5,0,0.9-0.4,0.9-0.9V22.9z
		 M30.3,33.5c0-0.5-0.4-0.9-0.9-0.9h-8.9c-0.5,0-0.9,0.4-0.9,0.9v5.3c0,0.5,0.4,0.9,0.9,0.9h8.9c0.5,0,0.9-0.4,0.9-0.9V33.5z
		 M44.5,12.2c0-0.5-0.4-0.9-0.9-0.9h-8.9c-0.5,0-0.9,0.4-0.9,0.9v5.3c0,0.5,0.4,0.9,0.9,0.9h8.9c0.5,0,0.9-0.4,0.9-0.9V12.2z
		 M44.5,22.9c0-0.5-0.4-0.9-0.9-0.9h-8.9c-0.5,0-0.9,0.4-0.9,0.9v5.3c0,0.5,0.4,0.9,0.9,0.9h8.9c0.5,0,0.9-0.4,0.9-0.9V22.9z
		 M44.5,33.5c0-0.5-0.4-0.9-0.9-0.9h-8.9c-0.5,0-0.9,0.4-0.9,0.9v5.3c0,0.5,0.4,0.9,0.9,0.9h8.9c0.5,0,0.9-0.4,0.9-0.9V33.5z"/>
</g>
</svg>
