<?xml version="1.0" encoding="utf-8"?>
<!-- Generator: Adobe Illustrator 19.1.0, SVG Export Plug-In . SVG Version: 6.00 Build 0)  -->
<svg version="1.1" id="Layer_1" xmlns="http://www.w3.org/2000/svg" xmlns:xlink="http://www.w3.org/1999/xlink" x="0px" y="0px"
	 viewBox="0 0 50 50" style="enable-background:new 0 0 50 50;" xml:space="preserve">
<style type="text/css">
	.st0{enable-background:new    ;}
	.st1{fill:none;stroke:#0CAEBB;}
</style>
<g class="st0">
	<path class="st1" d="M4.7,42.3c2.3-0.7,4.8-0.2,5.8-2.9l5.8-15l6.8-17.7H25h1.3c0.1,0.2,0.2,0.3,0.3,0.5l5,11.7
		c1.8,4.3,3.5,8.7,5.4,13c1.1,2.5,2,5.2,3.2,7.6c0.2,0.4,0.5,1.1,0.9,1.4c0.8,0.6,3.1,0.8,4.2,1.2c0.1,0.5,0.1,0.9,0.1,1.4
		c0,0.2,0,0.4,0,0.6c-3.1,0-6.2-0.4-9.3-0.4c-3.2,0-6.4,0.3-9.6,0.4c0-0.6,0-1.3,0.1-1.9l3.2-0.7c0.7-0.1,2-0.3,2-1.2
		c0-0.9-3.2-8.1-3.5-9.1l-11,0C16.5,32.6,14,39,14,40c0,1.9,3.6,2,5,2.2c0,0.5,0,0.9,0,1.4c0,0.2,0,0.4,0,0.7
		c-2.8,0-5.7-0.5-8.5-0.5c-0.3,0-0.8,0.1-1.2,0.2c-1.5,0.3-3.1,0.3-4.6,0.3L4.7,42.3z M18.2,28.2c2.4,0,4.8,0.1,7.3,0.1
		c0.5,0,0.9,0,1.4,0c-1.3-3.7-2.8-7.5-4.5-11L18.2,28.2z"/>
</g>
</svg>
