<svg version="1.1" x="0px" y="0px" viewBox="0 0 48 48" width="20" height="20">
<path d="M357,436.3l-22.4-22.4c5.4-7.8,8.1-16.4,8.1-26c0-6.2-1.2-12.2-3.6-17.8c-2.4-5.7-5.7-10.6-9.8-14.7
	c-4.1-4.1-9-7.4-14.7-9.8c-5.7-2.4-11.6-3.6-17.8-3.6s-12.2,1.2-17.8,3.6c-5.7,2.4-10.6,5.7-14.7,9.8c-4.1,4.1-7.4,9-9.8,14.7
	c-2.4,5.7-3.6,11.6-3.6,17.8c0,6.2,1.2,12.2,3.6,17.8c2.4,5.7,5.7,10.6,9.8,14.7c4.1,4.1,9,7.4,14.7,9.8c5.7,2.4,11.6,3.6,17.8,3.6
	c9.6,0,18.2-2.7,26-8.1l22.4,22.3c1.6,1.6,3.5,2.5,5.9,2.5c2.3,0,4.3-0.8,5.9-2.4c1.6-1.6,2.4-3.6,2.4-5.9
	C359.5,439.8,358.7,437.9,357,436.3L357,436.3z M317.5,408.5c-5.7,5.7-12.6,8.6-20.6,8.6c-8,0-14.9-2.9-20.6-8.6
	c-5.7-5.7-8.6-12.6-8.6-20.6s2.9-14.9,8.6-20.6c5.7-5.7,12.6-8.6,20.6-8.6c8,0,14.9,2.9,20.6,8.6c5.7,5.7,8.6,12.6,8.6,20.6
	S323.2,402.8,317.5,408.5L317.5,408.5z M317.5,408.5"/>
<path d="M315.7,383.7h-37.5c-0.6,0-1.1,0.2-1.5,0.6c-0.4,0.4-0.6,0.9-0.6,1.5v4.2c0,0.6,0.2,1,0.6,1.5c0.4,0.4,0.9,0.6,1.5,0.6h37.5
	c0.6,0,1.1-0.2,1.5-0.6c0.4-0.4,0.6-0.9,0.6-1.5v-4.2c0-0.6-0.2-1.1-0.6-1.5C316.7,383.9,316.2,383.7,315.7,383.7L315.7,383.7z
	 M315.7,383.7"/>
</svg>
